<?xml version="1.0" encoding="UTF-8"?>
<!DOCTYPE svg PUBLIC "-//W3C//DTD SVG 1.1//EN" "http://www.w3.org/Graphics/SVG/1.1/DTD/svg11.dtd">
<svg xmlns="http://www.w3.org/2000/svg" version="1.1" width="407px" height="389px" style="shape-rendering:geometricPrecision; text-rendering:geometricPrecision; image-rendering:optimizeQuality; fill-rule:evenodd; clip-rule:evenodd" xmlns:xlink="http://www.w3.org/1999/xlink">
<g><path style="opacity:1" fill="#4dba87" d="M 102.5,24.5 C 132.764,78.1897 163.43,131.69 194.5,185C 174.169,185.5 153.836,185.667 133.5,185.5C 102.04,132.081 70.7066,78.5806 39.5,25C 60.4974,24.5 81.4974,24.3334 102.5,24.5 Z"/></g>
<g><path style="opacity:1" fill="#425465" d="M 102.5,24.5 C 121.503,24.3334 140.503,24.5001 159.5,25C 171.626,45.4179 183.626,65.9179 195.5,86.5C 207.699,66.1299 219.699,45.6299 231.5,25C 250.497,24.5001 269.497,24.3334 288.5,24.5C 227.357,130.778 166.19,237.112 105,343.5C 104.241,345.063 103.074,346.063 101.5,346.5C 101.333,311.498 101.5,276.498 102,241.5C 112.777,222.941 123.277,204.274 133.5,185.5C 153.836,185.667 174.169,185.5 194.5,185C 163.43,131.69 132.764,78.1897 102.5,24.5 Z"/></g>
<g><path style="opacity:1" fill="#4dba87" d="M 288.5,24.5 C 309.503,24.3334 330.503,24.5 351.5,25C 286.234,136.446 221.568,248.279 157.5,360.5C 138.845,361.5 120.179,361.833 101.5,361.5C 101.5,356.5 101.5,351.5 101.5,346.5C 103.074,346.063 104.241,345.063 105,343.5C 166.19,237.112 227.357,130.778 288.5,24.5 Z"/></g>
</svg>
