<?xml version="1.0" standalone="no"?>
<!DOCTYPE svg PUBLIC "-//W3C//DTD SVG 20010904//EN"
 "http://www.w3.org/TR/2001/REC-SVG-20010904/DTD/svg10.dtd">
<svg version="1.0" xmlns="http://www.w3.org/2000/svg"
 width="814.000000pt" height="814.000000pt" viewBox="0 0 814.000000 814.000000"
 preserveAspectRatio="xMidYMid meet">
<metadata>
Created by potrace 1.14, written by Peter Selinger 2001-2017
</metadata>
<g transform="translate(0.000000,814.000000) scale(0.100000,-0.100000)"
fill="#000000" stroke="none">
<path d="M1747 7473 c-1 -1 -196 -3 -432 -4 -237 -2 -438 -7 -447 -11 -11 -6
-18 -5 -18 2 0 7 -6 8 -17 2 -10 -5 -24 -7 -31 -4 -12 3 -12 0 -1 -19 11 -22
58 -99 87 -144 6 -11 15 -27 19 -35 4 -8 33 -59 65 -113 32 -53 58 -102 58
-107 0 -6 3 -10 8 -10 4 0 18 -21 32 -47 22 -44 36 -67 85 -148 10 -16 18 -32
18 -35 0 -3 12 -24 28 -47 16 -23 29 -44 29 -47 0 -3 16 -30 35 -60 19 -30 35
-58 35 -62 0 -4 6 -15 14 -23 7 -9 27 -41 43 -71 61 -112 117 -205 125 -208 4
-2 8 -8 8 -12 0 -5 46 -87 101 -182 117 -199 116 -197 200 -343 35 -60 66
-112 69 -115 3 -3 11 -16 18 -29 8 -13 23 -40 35 -60 11 -20 27 -47 35 -61 7
-14 25 -43 38 -65 13 -22 29 -51 36 -65 7 -14 15 -27 18 -30 4 -3 21 -32 40
-65 18 -33 40 -68 48 -77 8 -10 11 -18 7 -18 -4 0 -1 -8 7 -17 9 -10 69 -110
135 -223 66 -113 151 -257 188 -320 37 -63 75 -128 85 -145 9 -16 31 -54 49
-83 17 -29 31 -56 31 -61 0 -4 9 -16 19 -25 24 -22 21 -37 -18 -106 -16 -30
-43 -80 -58 -110 -15 -30 -36 -63 -45 -74 -10 -10 -15 -23 -12 -28 3 -4 1 -8
-3 -8 -5 0 -16 -17 -26 -37 -9 -21 -21 -45 -27 -53 -5 -8 -35 -62 -67 -120
-31 -58 -62 -108 -67 -112 -6 -4 -7 -8 -3 -8 5 0 -1 -13 -12 -29 -12 -16 -21
-34 -21 -40 0 -6 -4 -11 -10 -11 -5 0 -10 -4 -10 -9 0 -5 -50 -96 -111 -203
-61 -106 -113 -202 -116 -213 -3 -11 -7 -554 -10 -1207 l-5 -1188 53 -1 c292
-3 774 5 954 16 28 2 66 3 86 4 31 1 38 5 43 26 4 14 11 25 16 25 6 0 10 6 10
13 0 7 13 33 28 58 16 24 42 69 59 99 26 47 109 193 173 305 10 17 36 62 59
102 22 39 49 87 60 105 184 323 458 800 472 823 11 17 22 37 26 45 9 20 246
430 289 502 19 31 34 58 34 61 0 2 25 46 55 96 30 51 55 96 55 101 0 6 5 10
11 10 5 0 7 5 4 10 -3 6 -2 10 3 10 5 0 12 8 15 18 3 9 20 40 36 67 17 28 35
59 41 70 6 11 20 36 31 55 12 19 65 112 119 205 54 94 107 186 118 205 20 34
68 117 110 191 11 20 39 67 61 104 23 37 41 69 41 71 0 2 17 32 38 66 21 35
41 70 45 78 4 8 18 33 31 55 14 22 37 63 51 90 15 28 33 57 40 65 6 8 15 22
19 30 3 8 17 33 29 55 94 162 109 187 136 235 13 25 27 47 30 50 4 3 13 19 21
35 8 17 18 32 21 35 3 3 12 19 21 35 26 53 53 100 58 105 3 3 26 41 51 85 25
44 78 136 119 205 40 69 80 139 90 155 9 17 41 72 71 123 30 51 61 105 69 120
8 15 17 29 20 32 5 5 37 62 54 97 6 13 14 23 19 23 4 0 7 4 7 9 0 7 68 130
101 181 17 28 195 335 202 350 4 8 16 29 27 45 10 17 25 41 33 55 7 14 24 43
37 65 12 22 34 60 48 85 14 25 28 47 32 50 3 3 14 21 24 40 9 19 46 84 81 144
36 60 65 113 65 117 0 5 4 9 9 9 5 0 14 12 20 28 6 15 24 48 40 74 16 25 40
66 54 90 13 23 38 67 56 96 17 29 31 57 31 62 0 6 4 10 9 10 7 0 16 21 20 47
1 3 -104 7 -231 9 -315 4 -1704 4 -1952 0 -222 -4 -210 -1 -251 -81 -8 -16
-31 -57 -50 -90 -19 -33 -45 -79 -57 -102 -12 -24 -26 -43 -30 -43 -4 0 -8 -5
-8 -10 0 -6 -48 -93 -106 -193 -167 -285 -305 -520 -323 -547 -8 -14 -14 -28
-13 -32 1 -5 -3 -8 -9 -8 -5 0 -15 -13 -20 -30 -6 -16 -15 -30 -20 -30 -5 0
-8 -3 -7 -7 3 -10 -25 -53 -34 -53 -3 0 -25 33 -47 73 -22 39 -54 95 -71 122
-16 28 -34 59 -40 70 -5 11 -21 38 -35 60 -13 22 -38 65 -55 95 -60 107 -93
165 -99 170 -6 5 -15 20 -52 88 -11 20 -28 51 -38 67 -40 67 -179 302 -192
325 -8 14 -16 27 -19 30 -3 3 -16 25 -29 50 -34 63 -41 71 -65 69 -12 0 -23 0
-26 1 -20 9 -1056 13 -1070 5 -6 -3 -10 -1 -10 5 0 8 -6 8 -20 0 -11 -6 -20
-7 -20 -3 0 6 -267 12 -273 6z"/>
</g>
</svg>
